# xmcd
#
# Track frame offsets: 
#        150
#        13690
#        29302
#        48734
#        75509
#        93395
#        111243
#        126698
#        142691
#        163416
#        182159
#        197440
#
# Disc length: 2826 seconds
#
# Revision: 0
# Processed by: cddbd v1.5.2PL0 Copyright (c) Steve Scherf et al.
# Submitted via: ExactAudioCopy v0.99pb3
#
DISCID=a20b080c
DTITLE=Ирина Аллегрова - С Днем рождения
DYEAR=2005
DGENRE=Pop
TTITLE0=Алло любовь...
TTITLE1=Скажи
TTITLE2=Время от времени
TTITLE3=Свобода
TTITLE4=Прощай любовь
TTITLE5=Чао, Чао
TTITLE6=Луна
TTITLE7=Майами
TTITLE8=Одинокая
TTITLE9=Коктейль любви
TTITLE10=Тайна
TTITLE11=День рождения
EXTD=
EXTT0=
EXTT1=
EXTT2=
EXTT3=
EXTT4=
EXTT5=
EXTT6=
EXTT7=
EXTT8=
EXTT9=
EXTT10=
EXTT11=
PLAYORDER=
